<?xml version="1.0" encoding="utf-8"?>
<!-- Generator: Adobe Illustrator 15.1.0, SVG Export Plug-In . SVG Version: 6.00 Build 0)  -->
<!DOCTYPE svg PUBLIC "-//W3C//DTD SVG 1.1//EN" "http://www.w3.org/Graphics/SVG/1.1/DTD/svg11.dtd">
<svg version="1.1" id="Layer_5" xmlns="http://www.w3.org/2000/svg" xmlns:xlink="http://www.w3.org/1999/xlink" x="0px" y="0px"
	 width="509.8px" height="509.8px" viewBox="0 0 509.8 509.8" enable-background="new 0 0 509.8 509.8" xml:space="preserve">
<g>
	<g>
		<g>
			<path fill="#173142" d="M167,325.6c-0.9-2.8-3.5-4.6-6.4-4.6h-32.8c-58,0-105.1,47-105.1,105.1v46.6c0,8.6,7,15.6,15.6,15.6
				h172.5c4.6,0,7.8-4.4,6.4-8.8L167,325.6z M384.6,321h-32.7c-2.9,0-5.5,1.9-6.4,4.6l-50.2,154c-1.4,4.4,1.8,8.8,6.4,8.8h172.4
				c8.6,0,15.6-7,15.6-15.6v-46.6C489.7,368,442.6,321,384.6,321z M385.1,153c0-71.2-57.7-128.9-128.9-128.9
				C185,24.1,127.3,81.8,127.3,153c0,71.2,57.7,128.9,128.9,128.9C327.4,281.9,385.1,224.2,385.1,153z"/>
			<path fill="#173142" d="M256.2,324.6c-11.1,0-20.1,9-20.1,20.1v107.3c0,11.1,9,20.1,20.1,20.1c11.1,0,20.1-9,20.1-20.1V344.7
				C276.3,333.6,267.3,324.6,256.2,324.6z"/>
		</g>
	</g>
</g>
</svg>
