<?xml version="1.0" encoding="utf-8"?>
<!-- Generator: Adobe Illustrator 15.1.0, SVG Export Plug-In . SVG Version: 6.00 Build 0)  -->
<!DOCTYPE svg PUBLIC "-//W3C//DTD SVG 1.1//EN" "http://www.w3.org/Graphics/SVG/1.1/DTD/svg11.dtd">
<svg version="1.1" id="Layer_2" xmlns="http://www.w3.org/2000/svg" xmlns:xlink="http://www.w3.org/1999/xlink" x="0px" y="0px"
	 width="24px" height="24px" viewBox="0 0 24 24" enable-background="new 0 0 24 24" xml:space="preserve">
<g>
	<g>
		<path fill="#484848" d="M8.4,11.9C8.4,11.9,8.4,11.9,8.4,11.9c-0.7-0.2-1.2-0.8-1.3-1c-0.3-0.3-0.7-1-0.8-1.5L6.3,9
			c0-0.2-0.1-0.4-0.2-0.6l0-0.1C5.9,7.9,5.8,7.5,5.8,7.1V5.5c0-1.9,1.5-3.4,3.4-3.4s3.4,1.5,3.4,3.4v1.6c0,0.5-0.1,0.9-0.4,1.3
			C12.1,8.6,12,8.8,12,9l0,0.3c-0.1,0.6-0.6,1.3-0.8,1.6c-0.1,0.2-0.5,0.9-1.3,0.9c-0.2,0-0.4-0.1-0.4-0.4c0-0.2,0.1-0.4,0.4-0.4
			c0.4,0,0.7-0.5,0.7-0.5c0,0,0-0.1,0.1-0.1c0.3-0.3,0.6-0.9,0.7-1.2l0-0.3c0-0.3,0.2-0.7,0.3-1c0.2-0.3,0.2-0.6,0.2-0.9V5.5
			c0-1.5-1.2-2.6-2.6-2.6C7.7,2.8,6.5,4,6.5,5.5v1.7c0,0.3,0.1,0.6,0.2,0.8l0,0.1C6.9,8.3,7,8.6,7,8.9l0.1,0.4
			c0,0.3,0.4,0.8,0.6,1.2c0,0,0,0,0,0c0.2,0.2,0.5,0.6,0.8,0.7c0.2,0.1,0.3,0.3,0.3,0.5C8.8,11.8,8.6,11.9,8.4,11.9z"/>
		<path fill="#484848" d="M1.9,19.4C1.9,19.4,1.8,19.4,1.9,19.4c-0.3-0.1-0.4-0.3-0.4-0.5l0.8-3.9c0,0,0,0,0-0.1
			c0.2-0.7,0.7-1.2,1.4-1.4l3.2-1.1L7,10.8c0-0.2,0.2-0.4,0.4-0.4c0.2,0,0.4,0.2,0.4,0.4l-0.2,1.9c0,0.2-0.1,0.3-0.3,0.3L4,14.3
			c-0.4,0.2-0.8,0.5-0.9,0.9l-0.8,3.9C2.2,19.3,2.1,19.4,1.9,19.4z"/>
		<path fill="#484848" d="M12,13.5c0,0-0.1,0-0.1,0l-1-0.4c-0.1-0.1-0.2-0.2-0.3-0.3l-0.2-1.9c0-0.2,0.1-0.4,0.4-0.4
			c0.2,0,0.4,0.1,0.4,0.4l0.1,1.7l0.8,0.3c0.2,0.1,0.3,0.3,0.2,0.5C12.3,13.4,12.2,13.5,12,13.5z"/>
	</g>
	<g>
		<path fill="#484848" d="M17.2,21.9c-1.4,0-2.6-0.5-3.6-1.5c-1.3-1.3-1.9-3.1-1.5-4.9c0-0.2,0.2-0.3,0.5-0.3c0.2,0,0.3,0.2,0.3,0.5
			c-0.3,1.5,0.2,3.1,1.3,4.2c0.9,0.8,2,1.3,3.2,1.2c1.2,0,2.3-0.5,3.2-1.4c0.8-0.9,1.3-2,1.2-3.2c0-1.2-0.5-2.3-1.4-3.2
			c-1.8-1.7-4.7-1.6-6.4,0.2c-0.1,0.2-0.4,0.2-0.5,0c-0.2-0.1-0.2-0.4,0-0.6c2-2.1,5.4-2.2,7.5-0.2c1,1,1.6,2.3,1.6,3.7
			c0,1.4-0.5,2.8-1.5,3.8c-1,1-2.3,1.6-3.7,1.6C17.3,21.9,17.3,21.9,17.2,21.9z"/>
		<path fill="#484848" d="M15.1,13.9C15.1,13.9,15.1,13.9,15.1,13.9l-1.7-0.1c-0.1,0-0.2-0.1-0.3-0.1c-0.1-0.1-0.1-0.2-0.1-0.3
			l0.1-1.6c0-0.2,0.2-0.4,0.4-0.4c0.2,0,0.4,0.2,0.4,0.4l-0.1,1.2l1.2,0.1c0.2,0,0.4,0.2,0.4,0.4C15.5,13.8,15.3,13.9,15.1,13.9z"/>
		<path fill="#484848" d="M18.9,17.1h-1.8c-0.2,0-0.4-0.2-0.4-0.4v-2.9c0-0.2,0.2-0.4,0.4-0.4c0.2,0,0.4,0.2,0.4,0.4v2.5h1.4
			c0.2,0,0.4,0.2,0.4,0.4S19.2,17.1,18.9,17.1z"/>
	</g>
</g>
</svg>
