<?xml version="1.0" encoding="utf-8"?>
<!-- Generator: Adobe Illustrator 15.1.0, SVG Export Plug-In . SVG Version: 6.00 Build 0)  -->
<!DOCTYPE svg PUBLIC "-//W3C//DTD SVG 1.1//EN" "http://www.w3.org/Graphics/SVG/1.1/DTD/svg11.dtd">
<svg version="1.1" id="Layer_4" xmlns="http://www.w3.org/2000/svg" xmlns:xlink="http://www.w3.org/1999/xlink" x="0px" y="0px"
	 width="24px" height="24px" viewBox="0 0 24 24" enable-background="new 0 0 24 24" xml:space="preserve">
<g>
	<path fill="#484848" d="M12,22.5c-2,0-3.9-0.5-5.5-1.6c-1.6-1-2.9-2.4-3.8-4.1c-0.1-0.2,0-0.4,0.2-0.5c0.2-0.1,0.4,0,0.5,0.2
		c0.8,1.6,2,2.9,3.5,3.8c1.5,1,3.3,1.5,5.1,1.5c2.6,0,5-1,6.8-2.8c1.8-1.8,2.8-4.2,2.8-6.8s-1-5-2.8-6.8C17,3.4,14.6,2.4,12,2.4
		C9.5,2.4,7.1,3.3,5.3,5C5.2,5.2,4.9,5.2,4.7,5c-0.2-0.2-0.1-0.4,0-0.6c2-1.9,4.5-2.9,7.2-2.9c2.8,0,5.4,1.1,7.4,3.1
		c2,2,3.1,4.6,3.1,7.4c0,2.8-1.1,5.4-3.1,7.4C17.4,21.4,14.8,22.5,12,22.5z"/>
	<circle fill="#484848" cx="3.7" cy="6.3" r="0.4"/>
	<circle fill="#484848" cx="2.8" cy="8" r="0.4"/>
	<circle fill="#484848" cx="2.1" cy="10.1" r="0.4"/>
	<circle fill="#484848" cx="2" cy="12.3" r="0.4"/>
	<circle fill="#484848" cx="2.2" cy="14.5" r="0.4"/>
</g>
<path fill="#484848" d="M11.8,11.2L7.1,6.5c-0.2-0.2-0.4-0.2-0.6,0c-0.2,0.2-0.2,0.4,0,0.6l5.7,5.7c0,0,0,0,0,0l4.7,4.7
	c0.2,0.2,0.4,0.2,0.6,0c0.2-0.2,0.2-0.4,0-0.6L11.8,11.2C11.8,11.2,11.8,11.2,11.8,11.2z"/>
<path fill="#484848" d="M12.8,11.8l4.7-4.7c0.2-0.2,0.2-0.4,0-0.6c-0.2-0.2-0.4-0.2-0.6,0l-5.7,5.7c0,0,0,0,0,0l-4.7,4.7
	c-0.2,0.2-0.2,0.4,0,0.6c0.2,0.2,0.4,0.2,0.6,0L12.8,11.8C12.8,11.8,12.8,11.8,12.8,11.8z"/>
</svg>
