<?xml version="1.0" encoding="utf-8"?>
<!-- Generator: Adobe Illustrator 15.1.0, SVG Export Plug-In . SVG Version: 6.00 Build 0)  -->
<!DOCTYPE svg PUBLIC "-//W3C//DTD SVG 1.1//EN" "http://www.w3.org/Graphics/SVG/1.1/DTD/svg11.dtd">
<svg version="1.1" id="Layer_1" xmlns="http://www.w3.org/2000/svg" xmlns:xlink="http://www.w3.org/1999/xlink" x="0px" y="0px"
	 width="509.8px" height="509.8px" viewBox="0 0 509.8 509.8" enable-background="new 0 0 509.8 509.8" xml:space="preserve">
<g>
	<g>
		<g>
			<g>
				<path fill="#173142" d="M378,292.3L293.8,358c-4.2,3.3-9.3,5-14.6,5l-60.2,0c-8.2,0-14.8-6.7-14.8-14.9
					c0-8.2,6.7-14.8,14.9-14.8l50.5,0c16.4,0,29.7-13.3,29.7-29.6c0-16.4-13.3-29.7-29.7-29.7L154,273.9l0,0l-7.8,0
					c-15.9,0-31.4,5.3-44,15.1l-41.3,32.3c-2.6,2-3,5.8-1,8.3l79.9,101.4c1.1,1.4,2.8,2.2,4.6,2.3l96.9,1l26.8,0.3
					c16.2,0.2,32.1-5.2,44.8-15.3l101.9-80.2c12.9-10.2,15.1-28.9,5-41.8C409.5,284.5,390.9,282.2,378,292.3z M449.6,181.8
					L369.7,80.4c-1.1-1.4-2.8-2.2-4.6-2.3l-96.9-1l-26.8-0.3c-16.2-0.2-32.1,5.2-44.8,15.3L94.8,172.3c-12.9,10.2-15.1,28.9-5,41.8
					c10.1,12.9,28.8,15.1,41.7,5l84.2-65.7c4.2-3.3,9.3-5,14.6-5l60.2,0.1c8.2,0,14.8,6.7,14.8,14.9c0,8.2-6.7,14.8-14.9,14.8
					l-50.5,0c-16.4,0-29.7,13.3-29.7,29.6c0,16.4,13.3,29.7,29.7,29.7l82.9,0.1l40.5,0c15.9,0,31.4-5.3,44-15.1l41.3-32.3
					C451.1,188.1,451.6,184.4,449.6,181.8z"/>
				<path fill="#173142" d="M36.6,348c-2-2.6-5.8-3-8.3-1L9.6,361.7c-2.6,2-3,5.8-1,8.3l78,99c2,2.6,5.8,3,8.3,1l18.7-14.7
					c2.6-2,3-5.8,1-8.3L36.6,348z M500.9,141.4l-78-99c-2-2.6-5.8-3-8.3-1l-18.7,14.7c-2.6,2-3,5.8-1,8.3l78,99c2,2.6,5.8,3,8.3,1
					l18.7-14.7C502.5,147.7,502.9,144,500.9,141.4z"/>
			</g>
		</g>
	</g>
</g>
</svg>
