<?xml version="1.0" encoding="utf-8"?>
<!-- Generator: Adobe Illustrator 15.1.0, SVG Export Plug-In . SVG Version: 6.00 Build 0)  -->
<!DOCTYPE svg PUBLIC "-//W3C//DTD SVG 1.1//EN" "http://www.w3.org/Graphics/SVG/1.1/DTD/svg11.dtd">
<svg version="1.1" id="Layer_4" xmlns="http://www.w3.org/2000/svg" xmlns:xlink="http://www.w3.org/1999/xlink" x="0px" y="0px"
	 width="509.8px" height="509.8px" viewBox="0 0 509.8 509.8" enable-background="new 0 0 509.8 509.8" xml:space="preserve">
<g>
	<g>
		<g>
			<g>
				<path fill="#173142" d="M493.2,248.3c0-57.5-46.6-104.1-104.1-104.1c-57.5,0-104.1,46.6-104.1,104.1c0,52,38.2,95,88.1,102.7
					v17.4h-0.4c-6.4,0-11.6,5.2-11.6,11.6v88.9c0,6.4,5.2,11.6,11.6,11.6h32.9c6.4,0,11.6-5.2,11.6-11.6V380
					c0-6.4-5.2-11.6-11.6-11.6h-0.4V351C455,343.3,493.2,300.3,493.2,248.3z M389.1,312.3c-35.4,0-64.1-28.7-64.1-64.1
					c0-35.4,28.7-64.1,64.1-64.1c35.4,0,64.1,28.7,64.1,64.1C453.1,283.6,424.4,312.3,389.1,312.3z M157.1,254.3h-40.6
					c-6.4,0-11.6,5.2-11.6,11.6v46.4c0,6.4,5.2,11.6,11.6,11.6h40.6c6.4,0,11.6-5.2,11.6-11.6v-46.4
					C168.7,259.5,163.5,254.3,157.1,254.3z"/>
				<path fill="#173142" d="M389.1,39.8H64.3c-25.6,0-46.4,20.8-46.4,46.4v290c0,25.6,20.8,46.4,46.4,46.4H332v-46.1
					c0-0.1,0-0.2,0-0.3H75.9c-6.4,0-11.6-5.2-11.6-11.6V167.3c0-6.4,5.2-11.6,11.6-11.6h217.9c23.3-24,55.5-39.5,91.1-40.5
					c1.4,0,2.8-0.1,4.1-0.1c16.3,0,31.9,3.1,46.4,8.5V86.2C435.4,60.5,414.7,39.8,389.1,39.8z M87.5,121
					c-12.8,0-23.2-10.4-23.2-23.2s10.4-23.2,23.2-23.2s23.2,10.4,23.2,23.2S100.3,121,87.5,121z M203.5,115.2h-46.4
					c-9.6,0-17.4-7.8-17.4-17.4s7.8-17.4,17.4-17.4h46.4c9.6,0,17.4,7.8,17.4,17.4S213.1,115.2,203.5,115.2z M209.3,332.6h58
					c8,0,14.5-6.5,14.5-14.5c0-8-6.5-14.5-14.5-14.5h-58c-8,0-14.5,6.5-14.5,14.5C194.8,326.1,201.3,332.6,209.3,332.6z
					 M244.1,187.6H116.5c-8,0-14.5,6.5-14.5,14.5c0,8,6.5,14.5,14.5,14.5h127.6c8,0,14.5-6.5,14.5-14.5
					C258.6,194.1,252.1,187.6,244.1,187.6z M244.1,245.6h-34.8c-8,0-14.5,6.5-14.5,14.5c0,8,6.5,14.5,14.5,14.5h34.8
					c8,0,14.5-6.5,14.5-14.5C258.6,252.1,252.1,245.6,244.1,245.6z"/>
			</g>
		</g>
	</g>
</g>
</svg>
