<?xml version="1.0" encoding="utf-8"?>
<!-- Generator: Adobe Illustrator 15.1.0, SVG Export Plug-In . SVG Version: 6.00 Build 0)  -->
<!DOCTYPE svg PUBLIC "-//W3C//DTD SVG 1.1//EN" "http://www.w3.org/Graphics/SVG/1.1/DTD/svg11.dtd">
<svg version="1.1" id="Layer_6" xmlns="http://www.w3.org/2000/svg" xmlns:xlink="http://www.w3.org/1999/xlink" x="0px" y="0px"
	 width="509.8px" height="509.8px" viewBox="0 0 509.8 509.8" enable-background="new 0 0 509.8 509.8" xml:space="preserve">
<g>
	<g>
		<g>
			<path fill="#173142" d="M225.9,17.7H79.5c-7.2,0-13.1,5.9-13.1,13.1v451.7c0,7.2,5.9,13.1,13.1,13.1h146.3
				c7.2,0,13.1-5.9,13.1-13.1V30.8C239,23.6,233.1,17.7,225.9,17.7z M152.7,423.6c-21.7,0-39.3-17.6-39.3-39.3
				c0-21.7,17.6-39.3,39.3-39.3c21.7,0,39.3,17.6,39.3,39.3C192,406,174.4,423.6,152.7,423.6z M181.5,178.1h-57.6
				c-9,0-16.4-7.3-16.4-16.4c0-9,7.3-16.4,16.4-16.4h57.6c9,0,16.4,7.3,16.4,16.4C197.9,170.8,190.5,178.1,181.5,178.1z
				 M181.5,112.6h-57.6c-9,0-16.4-7.3-16.4-16.4s7.3-16.4,16.4-16.4h57.6c9,0,16.4,7.3,16.4,16.4S190.5,112.6,181.5,112.6z"/>
			<path fill="#173142" d="M433,17.7H283.4c-7.2,0-13.1,5.9-13.1,13.1v451.7c0,7.2,5.9,13.1,13.1,13.1H433c7.2,0,13.1-5.9,13.1-13.1
				V30.8C446.1,23.6,440.3,17.7,433,17.7z M358.2,423.6c-21.7,0-39.3-17.6-39.3-39.3c0-21.7,17.6-39.3,39.3-39.3
				c21.7,0,39.3,17.6,39.3,39.3C397.5,406,379.9,423.6,358.2,423.6z M387.1,178.1h-57.6c-9,0-16.4-7.3-16.4-16.4
				c0-9,7.3-16.4,16.4-16.4h57.6c9,0,16.4,7.3,16.4,16.4C403.4,170.8,396.1,178.1,387.1,178.1z M387.1,112.6h-57.6
				c-9,0-16.4-7.3-16.4-16.4s7.3-16.4,16.4-16.4h57.6c9,0,16.4,7.3,16.4,16.4S396.1,112.6,387.1,112.6z"/>
		</g>
	</g>
</g>
</svg>
