<?xml version="1.0" encoding="utf-8"?>
<!-- Generator: Adobe Illustrator 15.1.0, SVG Export Plug-In . SVG Version: 6.00 Build 0)  -->
<!DOCTYPE svg PUBLIC "-//W3C//DTD SVG 1.1//EN" "http://www.w3.org/Graphics/SVG/1.1/DTD/svg11.dtd">
<svg version="1.1" id="Layer_5" xmlns="http://www.w3.org/2000/svg" xmlns:xlink="http://www.w3.org/1999/xlink" x="0px" y="0px"
	 width="24px" height="24px" viewBox="0 0 24 24" enable-background="new 0 0 24 24" xml:space="preserve">
<g>
	<path fill="#484848" d="M21.4,17.2c0,0.3,0.2,0.5,0.4,0.5h0.3c0.2,0,0.4-0.2,0.4-0.5s-0.2-0.5-0.4-0.5h-0.3
		C21.6,16.7,21.4,16.9,21.4,17.2z"/>
	<path fill="#484848" d="M19.4,17.2c0,0.3,0.2,0.5,0.4,0.5h0.4c0.2,0,0.4-0.2,0.4-0.5s-0.2-0.5-0.4-0.5h-0.4
		C19.6,16.7,19.4,16.9,19.4,17.2z"/>
	<path fill="#484848" d="M17.4,17.2c0,0.3,0.2,0.5,0.4,0.5h0.4c0.2,0,0.4-0.2,0.4-0.5s-0.2-0.5-0.4-0.5h-0.4
		C17.6,16.7,17.4,16.9,17.4,17.2z"/>
	<path fill="#484848" d="M15.3,17.2c0,0.3,0.2,0.5,0.4,0.5h0.4c0.2,0,0.4-0.2,0.4-0.5s-0.2-0.5-0.4-0.5h-0.4
		C15.5,16.7,15.3,16.9,15.3,17.2z"/>
	<path fill="#484848" d="M1.4,13c0,2.6,1.7,4.8,3.8,4.8h8.6c0.2,0,0.4-0.2,0.4-0.5s-0.2-0.5-0.4-0.5H5.2c-1.6,0-2.9-1.7-2.9-3.7
		c0-2.1,1.3-3.7,2.9-3.7h8.7c0.2,0,0.4-0.2,0.4-0.5c0-0.3-0.2-0.5-0.4-0.5H5.2C3.1,8.2,1.4,10.3,1.4,13z"/>
	<path fill="#484848" d="M12.1,6.8c0,0.1,0,0.3,0.1,0.4l1.5,1.5l-1.5,1.5c-0.2,0.2-0.2,0.5,0,0.7c0.1,0.2,0.4,0.2,0.6,0.1l1.8-1.9
		c0.1-0.1,0.1-0.2,0.1-0.4s-0.1-0.3-0.1-0.4l-1.8-1.9c-0.2-0.2-0.4-0.2-0.6,0.1C12.1,6.6,12.1,6.7,12.1,6.8z"/>
</g>
</svg>
