<?xml version="1.0" encoding="utf-8"?>
<!-- Generator: Adobe Illustrator 15.1.0, SVG Export Plug-In . SVG Version: 6.00 Build 0)  -->
<!DOCTYPE svg PUBLIC "-//W3C//DTD SVG 1.1//EN" "http://www.w3.org/Graphics/SVG/1.1/DTD/svg11.dtd">
<svg version="1.1" id="Layer_3" xmlns="http://www.w3.org/2000/svg" xmlns:xlink="http://www.w3.org/1999/xlink" x="0px" y="0px"
	 width="24px" height="24px" viewBox="0 0 24 24" enable-background="new 0 0 24 24" xml:space="preserve">
<g>
	<g>
		<path fill="#484848" d="M8.1,21.3c-1.1,0-1.9-0.6-2.2-1.7c-0.1-0.4-0.2-0.8-0.1-1.2C6.1,12,5.3,8.1,4.6,5C4.2,3.7,3.8,3.4,3.2,3.4
			C3,3.4,2.9,3.3,2.9,3c0-0.2,0.2-0.4,0.4-0.4c1.4,0,1.8,1.1,2.1,2.1C6.1,8,6.9,12,6.4,18.5c0,0.3,0,0.6,0.1,0.9
			c0.2,0.7,0.8,1.2,1.5,1.2c0.2,0,0.4,0.2,0.4,0.4C8.5,21.2,8.3,21.3,8.1,21.3z"/>
		<path fill="#484848" d="M18.8,21.3H8c-0.2,0-0.4-0.2-0.4-0.4c0-0.2,0.2-0.4,0.4-0.4c0.9,0,1.7-0.8,1.7-1.8v-0.6
			c0-0.2,0.2-0.4,0.4-0.4h10.8c0.2,0,0.4,0.2,0.4,0.4v0.6C21.2,20.2,20.2,21.3,18.8,21.3z M9.7,20.6h9.1c0.9,0,1.7-0.8,1.7-1.8v-0.2
			H10.4v0.2C10.4,19.5,10.1,20.1,9.7,20.6z"/>
		<path fill="#484848" d="M17.8,7.5c-0.2,0-0.3-0.1-0.4-0.3c-0.1-0.7-0.2-1.2-0.3-1.7C17,5.3,17,5.1,17,5c-0.2-0.9-1.1-1.5-1.8-1.5
			H3.4c-0.1,0-0.2,0-0.3,0C2.4,3.6,2,4.4,2.1,5.2l0.3,1.1h1.9c0.2,0,0.4,0.2,0.4,0.4C4.7,6.8,4.5,7,4.3,7H2.1C1.9,7,1.7,6.9,1.7,6.7
			L1.4,5.3c0,0,0,0,0,0C1.1,4.1,1.8,3,2.9,2.7c0.1,0,0.3,0,0.4,0h11.8c0.6,0,1.1,0.2,1.6,0.6c0.5,0.4,0.8,1,0.9,1.6
			c0,0.1,0.1,0.3,0.1,0.6c0.1,0.4,0.2,1,0.3,1.7C18.2,7.3,18.1,7.5,17.8,7.5C17.8,7.5,17.8,7.5,17.8,7.5z"/>
		<path fill="#484848" d="M18.7,18.6C18.7,18.6,18.7,18.6,18.7,18.6c-0.2,0-0.4-0.2-0.4-0.4c0-1.4,0-3-0.1-4.6
			c0-0.2,0.1-0.4,0.4-0.4c0.2,0,0.4,0.1,0.4,0.4c0.1,1.6,0.2,3.2,0.1,4.7C19.1,18.4,19,18.6,18.7,18.6z"/>
	</g>
	<g>
		<path fill="#484848" d="M13.3,14.8c-0.1,0-0.2,0-0.3-0.1c-0.1-0.2-0.1-0.4,0.1-0.5l1.1-0.9v-1c0-0.6,0.3-1.2,0.8-1.6l3.8-3.1
			c0.8-0.6,1.8-1,2.8-0.9l0.7,0c0,0,0,0,0,0l0,0c0,0,0,0,0,0l0,0c0,0,0,0,0,0l0,0c0.1,0,0.2,0,0.2,0.1c0,0,0,0,0,0.1
			c0,0.1,0.1,0.1,0.1,0.2c0,0,0,0,0,0l0,0.2c-0.1,1.2-0.6,2.3-1.6,3.1l-3.8,3.1c-0.4,0.4-1,0.5-1.6,0.5l-1-0.1l-1.1,0.9
			C13.5,14.8,13.4,14.8,13.3,14.8z M15.5,13.1l0.3,0c0.4,0,0.7-0.1,1-0.3l3.8-3.1c0.6-0.5,1-1.1,1.2-1.8L15.5,13.1z M21.3,7.4
			c-0.7,0-1.4,0.3-2,0.8l-3.8,3.1c-0.3,0.3-0.5,0.6-0.5,1v0.4L21.3,7.4z"/>
	</g>
	<path fill="#484848" d="M14.9,7.6H8c-0.2,0-0.4-0.2-0.4-0.4C7.6,7,7.8,6.8,8,6.8h6.9c0.2,0,0.4,0.2,0.4,0.4
		C15.3,7.4,15.1,7.6,14.9,7.6z"/>
	<path fill="#484848" d="M14.8,10H8.4C8.2,10,8,9.8,8,9.6c0-0.2,0.2-0.4,0.4-0.4h6.4c0.2,0,0.4,0.2,0.4,0.4C15.2,9.8,15,10,14.8,10z
		"/>
	<path fill="#484848" d="M13.2,12.4H8.7c-0.2,0-0.4-0.2-0.4-0.4s0.2-0.4,0.4-0.4h4.5c0.2,0,0.4,0.2,0.4,0.4S13.4,12.4,13.2,12.4z"/>
	<path fill="#484848" d="M12.2,14.7H9c-0.2,0-0.4-0.2-0.4-0.4S8.7,14,9,14h3.2c0.2,0,0.4,0.2,0.4,0.4S12.4,14.7,12.2,14.7z"/>
</g>
</svg>
