<?xml version="1.0" encoding="utf-8"?>
<!-- Generator: Adobe Illustrator 15.1.0, SVG Export Plug-In . SVG Version: 6.00 Build 0)  -->
<!DOCTYPE svg PUBLIC "-//W3C//DTD SVG 1.1//EN" "http://www.w3.org/Graphics/SVG/1.1/DTD/svg11.dtd">
<svg version="1.1" id="Layer_1" xmlns="http://www.w3.org/2000/svg" xmlns:xlink="http://www.w3.org/1999/xlink" x="0px" y="0px"
	 width="24px" height="24px" viewBox="0 0 24 24" enable-background="new 0 0 24 24" xml:space="preserve">
<g>
	<path fill="#484848" d="M19.5,21.1h-8.9c-0.2,0-0.4-0.2-0.4-0.4V7.9c0-0.2,0.2-0.4,0.4-0.4h8.9c0.2,0,0.4,0.2,0.4,0.4v12.8
		C19.9,20.9,19.7,21.1,19.5,21.1z M11,20.3h8.1v-12H11V20.3z"/>
	<path fill="#484848" d="M9.1,21.1h-1c-0.2,0-0.4-0.2-0.4-0.4V7.9c0-0.2,0.2-0.4,0.4-0.4h1c0.2,0,0.4,0.2,0.4,0.4
		c0,0.2-0.2,0.4-0.4,0.4H8.5v12h0.6c0.2,0,0.4,0.2,0.4,0.4C9.5,20.9,9.3,21.1,9.1,21.1z"/>
	<path fill="#484848" d="M6.6,21.1h-1c-0.2,0-0.4-0.2-0.4-0.4V7.9c0-0.2,0.2-0.4,0.4-0.4h1C6.8,7.5,7,7.7,7,7.9
		c0,0.2-0.2,0.4-0.4,0.4H6v12h0.6c0.2,0,0.4,0.2,0.4,0.4C7,20.9,6.8,21.1,6.6,21.1z"/>
	<g>
		<path fill="#484848" d="M21.2,11.2c-0.1,0-0.2,0-0.3-0.1c-0.2-0.1-0.2-0.4,0-0.5c0.6-0.7,1-1.7,1-2.7c0-2.3-1.8-4.1-4.1-4.1H7
			c-2.3,0-4.1,1.8-4.1,4.1c0,0.8,0.3,1.7,0.7,2.3c0.1,0.2,0.1,0.4-0.1,0.5c-0.2,0.1-0.4,0.1-0.5-0.1C2.4,9.9,2.1,8.9,2.1,7.9
			C2.1,5.2,4.3,3,7,3h10.8c2.7,0,4.9,2.2,4.9,4.9c0,1.2-0.4,2.3-1.2,3.2C21.4,11.2,21.3,11.2,21.2,11.2z"/>
		<path fill="#484848" d="M3.4,11C3.4,11,3.4,11,3.4,11L2,10.7c-0.2,0-0.4-0.2-0.3-0.4S1.9,9.9,2.1,10l1,0.2l0.2-1
			c0-0.2,0.2-0.4,0.4-0.3C4,8.8,4.1,9,4.1,9.2l-0.2,1.4C3.8,10.8,3.6,11,3.4,11z"/>
	</g>
	<path fill="#484848" d="M17.5,10.8h-4.7c-0.2,0-0.4-0.2-0.4-0.4c0-0.2,0.2-0.4,0.4-0.4h4.7c0.2,0,0.4,0.2,0.4,0.4
		C17.9,10.7,17.7,10.8,17.5,10.8z"/>
	<path fill="#484848" d="M17.5,12.8h-4.7c-0.2,0-0.4-0.2-0.4-0.4c0-0.2,0.2-0.4,0.4-0.4h4.7c0.2,0,0.4,0.2,0.4,0.4
		C17.9,12.6,17.7,12.8,17.5,12.8z"/>
	<path fill="#484848" d="M17.5,14.7h-4.7c-0.2,0-0.4-0.2-0.4-0.4s0.2-0.4,0.4-0.4h4.7c0.2,0,0.4,0.2,0.4,0.4S17.7,14.7,17.5,14.7z"
		/>
	<path fill="#484848" d="M17.5,16.7h-4.7c-0.2,0-0.4-0.2-0.4-0.4c0-0.2,0.2-0.4,0.4-0.4h4.7c0.2,0,0.4,0.2,0.4,0.4
		C17.9,16.5,17.7,16.7,17.5,16.7z"/>
	<path fill="#484848" d="M15.1,18.6h-2.3c-0.2,0-0.4-0.2-0.4-0.4c0-0.2,0.2-0.4,0.4-0.4h2.3c0.2,0,0.4,0.2,0.4,0.4
		C15.4,18.5,15.3,18.6,15.1,18.6z"/>
</g>
</svg>
