<?xml version="1.0" encoding="utf-8"?>
<!-- Generator: Adobe Illustrator 15.1.0, SVG Export Plug-In . SVG Version: 6.00 Build 0)  -->
<!DOCTYPE svg PUBLIC "-//W3C//DTD SVG 1.1//EN" "http://www.w3.org/Graphics/SVG/1.1/DTD/svg11.dtd">
<svg version="1.1" id="Layer_2" xmlns="http://www.w3.org/2000/svg" xmlns:xlink="http://www.w3.org/1999/xlink" x="0px" y="0px"
	 width="509.8px" height="509.8px" viewBox="0 0 509.8 509.8" enable-background="new 0 0 509.8 509.8" xml:space="preserve">
<g>
	<g>
		<path fill="#173142" d="M173.4,370.6c-0.9-2.4-3.2-3.9-5.8-3.9h-44.9c-45.5,0-82.4,36.9-82.4,82.4v40.9c0,3.4,2.8,6.2,6.2,6.2
			h166.6c4.3,0,7.3-4.4,5.8-8.4L173.4,370.6z M388,366.7h-44.8c-2.6,0-4.9,1.6-5.8,3.9L292,487.7c-1.6,4.1,1.4,8.4,5.8,8.4h166.5
			c3.4,0,6.2-2.8,6.2-6.2v-40.9C470.4,403.6,433.5,366.7,388,366.7z"/>
		<path fill="#173142" d="M255.4,370c-10.2,0-18.5,8.3-18.5,18.5V475c0,10.2,8.3,18.5,18.5,18.5c10.2,0,18.5-8.3,18.5-18.5v-86.4
			C273.9,378.3,265.6,370,255.4,370z M419.4,155c-0.6-3.7-3.8-6.4-7.6-6.4h-15.6c-5-1.4-9-5.3-10.6-10.5
			c-2.9-9.2-6.8-17.9-11.5-26.2c-1.7-3-1.3-6.7,1.1-9.1l12.5-12.5c2.7-2.7,3.1-6.9,0.8-9.9c-9.6-12.9-21-24.3-33.8-33.9
			c-3-2.3-7.3-1.9-10,0.8l-12.5,12.5c-2.4,2.4-6.1,2.8-9.1,1.1c-11.5-6.6-24-11.5-37.3-14.6c0,0,0,0,0,0V22.8c0-3.7-2.7-7-6.4-7.6
			c-7.8-1.2-15.8-1.8-24-1.8c-8.2,0-16.2,0.7-24,1.8c-3.7,0.5-6.4,3.8-6.4,7.6v23.6h0c-13.3,3-25.8,8-37.4,14.6
			c-3,1.7-6.7,1.3-9.1-1.1L166,47.3c-2.7-2.7-6.9-3.1-10-0.8c-12.8,9.6-24.2,21-33.8,33.9c-2.2,3-1.8,7.3,0.8,9.9l12.5,12.5
			c2.4,2.4,2.8,6.1,1.1,9.1c-4.7,8.2-8.6,17-11.5,26.2c-1.7,5.2-5.6,9.1-10.6,10.5H98.9c-3.7,0-7,2.7-7.6,6.4
			c-1.2,8-1.9,16.1-1.9,24.4c0,8.3,0.7,16.4,1.9,24.4c0.6,3.7,3.8,6.4,7.6,6.4h15.6c5,1.4,9,5.3,10.6,10.5
			c2.9,9.2,6.8,17.9,11.5,26.2c1.7,3,1.3,6.6-1.1,9.1l-12.5,12.5c-2.7,2.7-3.1,6.9-0.8,9.9c9.6,12.9,21,24.3,33.8,33.9
			c3,2.3,7.3,1.8,10-0.8l12.5-12.5c2.4-2.4,6.1-2.8,9.1-1.1c11.5,6.6,24,11.6,37.3,14.6c0,0,0,0,0,0v23.6c0,3.7,2.7,7,6.4,7.6
			c7.8,1.2,15.8,1.8,24,1.8c8.2,0,16.2-0.7,24-1.8c3.7-0.6,6.4-3.8,6.4-7.6v-23.6c0,0,0,0,0,0c13.3-3,25.8-8,37.3-14.6
			c3-1.7,6.7-1.3,9.1,1.1l12.5,12.5c2.7,2.7,7,3.1,10,0.8c12.8-9.6,24.2-21,33.8-33.9c2.2-3,1.8-7.3-0.8-9.9l-12.5-12.5
			c-2.4-2.4-2.8-6.1-1.1-9.1c4.7-8.2,8.6-17,11.5-26.2c1.7-5.2,5.6-9.1,10.6-10.5h15.6c3.7,0,7-2.7,7.6-6.4c1.2-8,1.9-16.1,1.9-24.4
			C421.3,171,420.6,162.9,419.4,155z M318,189.4c-4.1,26.7-25.9,48.5-52.6,52.6c-42.8,6.6-79.2-29.8-72.6-72.7
			c4.1-26.7,25.9-48.5,52.6-52.6C288.2,110.1,324.6,146.5,318,189.4z"/>
	</g>
</g>
</svg>
