<?xml version="1.0" encoding="utf-8"?>
<!-- Generator: Adobe Illustrator 15.1.0, SVG Export Plug-In . SVG Version: 6.00 Build 0)  -->
<!DOCTYPE svg PUBLIC "-//W3C//DTD SVG 1.1//EN" "http://www.w3.org/Graphics/SVG/1.1/DTD/svg11.dtd">
<svg version="1.1" id="Layer_3" xmlns="http://www.w3.org/2000/svg" xmlns:xlink="http://www.w3.org/1999/xlink" x="0px" y="0px"
	 width="509.8px" height="509.8px" viewBox="0 0 509.8 509.8" enable-background="new 0 0 509.8 509.8" xml:space="preserve">
<g>
	<g>
		<path fill="#173142" d="M482.4,274.4l-15.6-83.6c-3.6-19.3-20.4-33.3-40.1-33.3h-34.2c-19.6,0-36.4,14-40.1,33.2
			c1.2,3.5,2.3,6.9,3,10.6l18.7,100.2c2.2,11.9,0.3,23.8-5,34.4c0,0.3,0.2,0.6,0.2,0.9l6.2,77.1c0.9,10.6,9.7,18.7,20.3,18.7h27.6
			c10.6,0,19.5-8.2,20.3-18.7l6.2-77.1c0.3-3.6,1.5-7,3.5-9.9l25.6-37.2C482.3,285.2,483.4,279.7,482.4,274.4z M105.5,128.7
			c26.5,0,48.1-21.5,48.1-48.1c0-26.5-21.5-48.1-48.1-48.1c-26.6,0-48.1,21.5-48.1,48.1C57.5,107.1,79,128.7,105.5,128.7z
			 M411.1,128.7c26.5,0,48.1-21.5,48.1-48.1c0-26.5-21.5-48.1-48.1-48.1c-26.6,0-48.1,21.5-48.1,48.1
			C363,107.1,384.5,128.7,411.1,128.7z M121.3,157.5H87.1c-19.6,0-36.5,14-40.1,33.3l-15.6,83.6c-1,5.3,0.2,10.8,3.2,15.3l25.6,37.2
			c2,2.9,3.2,6.4,3.5,9.9l6.2,77.1c0.8,10.6,9.7,18.7,20.3,18.7H118c10.6,0,19.5-8.2,20.3-18.7l6.2-77.1c0-0.3,0.1-0.6,0.2-0.8
			c-5.3-10.6-7.2-22.6-5-34.4l18.7-100.2c0.7-3.7,1.8-7.2,3-10.6C157.7,171.4,140.9,157.5,121.3,157.5z"/>
		<path fill="#173142" d="M258.6,132.4c31.8,0,57.6-25.8,57.6-57.6c0-31.8-25.8-57.6-57.6-57.6c-31.8,0-57.6,25.8-57.6,57.6
			C200.9,106.7,226.8,132.4,258.6,132.4z M344.2,307.1l-18.7-100.2c-4.3-23.2-24.5-39.9-48.1-39.9h-41c-23.5,0-43.8,16.8-48.1,39.9
			l-18.7,100.2c-1.2,6.4,0.2,13,3.9,18.3l30.7,44.6c2.4,3.5,3.9,7.6,4.2,11.9l7.4,92.4c1,12.7,11.6,22.5,24.4,22.5h33.1
			c12.7,0,23.3-9.8,24.4-22.5l7.4-92.4c0.3-4.3,1.8-8.4,4.2-11.9l30.7-44.6C343.9,320.1,345.3,313.5,344.2,307.1z"/>
	</g>
</g>
</svg>
